<svg version="1" xmlns="http://www.w3.org/2000/svg" width="78.673" height="63.788" viewBox="0 0 78.673 63.788"><path d="M72.354 39.632c-2.797-2.4-6.636-3.604-11.518-3.604h-5.67c.473-4.08 1.278-7.397 2.42-9.948 1.142-2.55 2.855-5.044 5.14-7.477 2.363-2.51 4.685-4.53 6.97-6.063 2.283-1.53 5.274-3.356 8.978-5.477L74.42 0c-2.44 1.495-5.474 3.42-9.096 5.78-3.623 2.358-7.048 5.227-10.276 8.606-3.15 3.302-5.83 7.056-8.033 11.26-2.206 4.205-3.308 8.862-3.308 13.97 0 7.233 1.456 13.07 4.37 17.512 2.914 4.44 7.756 6.66 14.53 6.66 4.33 0 7.737-1.435 10.218-4.31s3.72-5.967 3.72-9.273c0-4.646-1.398-8.17-4.19-10.573zM19.02 18.602c2.36-2.51 4.684-4.53 6.97-6.062 2.282-1.53 5.273-3.356 8.977-5.477L30.713 0a394.404 394.404 0 0 0-9.095 5.78c-3.624 2.358-7.05 5.227-10.278 8.606-3.15 3.302-5.828 7.056-8.032 11.26C1.103 29.852 0 34.51 0 39.616c0 7.233 1.457 13.07 4.37 17.51 2.913 4.44 7.757 6.663 14.53 6.663 4.33 0 7.737-1.437 10.218-4.31 2.48-2.877 3.722-5.97 3.722-9.275 0-4.646-1.4-8.17-4.194-10.572-2.796-2.4-6.635-3.604-11.517-3.604h-5.673c.473-4.08 1.3-7.417 2.48-10.008 1.182-2.588 2.874-5.062 5.08-7.417z" fill="#efefef"/></svg>