<svg version="1" xmlns="http://www.w3.org/2000/svg" width="26.752" height="26.752" viewBox="0 0 26.752 26.752"><path fill="#f25b26" d="M15.497 13.376L26.312 2.562c.586-.585.586-1.535 0-2.12s-1.535-.587-2.12 0L13.375 11.254 2.562.44c-.586-.587-1.535-.587-2.12 0-.587.584-.587 1.534 0 2.12l10.813 10.815L.44 24.19c-.587.586-.587 1.535 0 2.12.292.294.676.44 1.06.44s.768-.146 1.06-.44l10.816-10.813L24.19 26.312c.293.293.677.44 1.06.44s.77-.147 1.062-.44c.586-.586.586-1.535 0-2.12L15.497 13.375z"/></svg>