<svg version="1" xmlns="http://www.w3.org/2000/svg" width="23.866" height="23.866" viewBox="0 0 23.866 23.866"><path d="M15.087 11.933l8.56-8.56c.293-.292.293-.767 0-1.06L21.554.22c-.14-.14-.33-.22-.53-.22s-.39.08-.53.22l-8.56 8.56L3.373.22c-.283-.282-.78-.282-1.062 0L.22 2.313c-.293.293-.293.768 0 1.06l8.56 8.56-8.56 8.56c-.293.292-.293.767 0 1.06l2.093 2.094c.14.14.33.22.53.22s.39-.08.53-.22l8.56-8.56 8.56 8.56c.142.14.332.22.53.22s.39-.08.53-.22l2.094-2.094c.293-.293.293-.768 0-1.06l-8.56-8.56z"/></svg>