<svg version="1" xmlns="http://www.w3.org/2000/svg" width="298.001" height="345.097" viewBox="0 0 298.001 345.097"><path d="M293.057 157.98c-5.442-20.657-15.198-39.563-28.273-55.688l8.567-8.563c6.075-6.078 6.075-15.93 0-22-3.333-3.34-7.78-4.656-12.128-4.333-3.596.254-7.146 1.596-9.866 4.333l-8.563 8.56c-9.083-7.354-19.08-13.552-29.734-18.627-9.618-4.558-19.752-8.195-30.34-10.67-.088-.015-.204-.015-.31-.037-4.587-1.065-9.204-1.985-13.962-2.613v-9.439h6.88c10.736 0 19.445-8.71 19.445-19.474 0-10.724-8.71-19.43-19.446-19.43h-53.832c-1.713 0-3.356.288-4.96.697 0 0-.01.03-.02.03-8.326 2.2-14.463 9.714-14.463 18.703 0 10.765 8.71 19.474 19.442 19.474h8.062v9.44C79.47 54.875 37.336 86.338 15.7 129.79c-4.32 8.66-7.893 17.746-10.454 27.24C1.846 169.484 0 182.554 0 196.09c0 64.416 40.952 119.158 98.227 139.945 15.87 5.734 32.922 9.062 50.772 9.062 7.434 0 14.735-.56 21.852-1.633.762-.096 1.484-.32 2.25-.45 20.967-3.433 40.53-11.17 57.597-22.393 23.57-15.495 42.377-37.463 54.08-63.388 8.424-18.7 13.222-39.326 13.222-61.144 0-13.168-1.726-25.935-4.945-38.108zm-66.21 115.963c-14.193 14.19-31.58 23.877-50.54 28.735-6.5 1.626-13.257 2.51-20.066 2.966-.97.06-1.88.23-2.844.24-1.476.073-2.916.3-4.396.3-4.044 0-8.062-.26-12.034-.69-24.86-2.697-47.885-13.608-65.823-31.55-20.794-20.794-32.258-48.455-32.258-77.855 0-2.33.198-4.6.334-6.897 1.658-26.815 12.765-51.82 31.923-70.97 2.383-2.37 4.875-4.594 7.42-6.735l.017-.013c19.75-16.48 44.38-25.5 70.42-25.5 4.76 0 9.44.327 14.052.93 14.462 1.87 28.247 6.57 40.743 13.758.136.083.286.184.41.28 8.15 4.744 15.797 10.446 22.645 17.28 1.608 1.622 3.067 3.335 4.55 5.032.053.054.103.12.166.184 3.025 3.446 5.73 7.14 8.292 10.887 1.63 2.442 3.264 4.894 4.694 7.43 8.845 15.45 13.85 32.853 14.386 51.07.038 1.09.152 2.148.152 3.262-.002 29.4-11.445 57.06-32.242 77.853z"/></svg>