<svg version="1" xmlns="http://www.w3.org/2000/svg" width="26.943" height="34.09" viewBox="0 0 26.943 34.09"><path d="M13.62.017L13.472 0 0 1.412v24.66l13.472 8.018 13.43-7.99.042-.026V1.412L13.62.017zm11.4 12.11L13.494 5.334V5.23l-.088.05-.088-.056v.11L1.924 12.117v-8.97L13.47 1.934l11.55 1.213v8.98zm-11.615-5.34L24.923 13.5l-4.48 2.64-7.092-4.22-.01 1.414 5.903 3.513-.86.507-5.03-2.992-.014 1.415 3.826 2.275-.782.523-3.032-1.787-.012 1.413 1.852 1.093-1.8 1.08-11.356-6.75 11.37-6.835zm-11.48 8.34l11.41 6.79.016 1.045-7.94-4.728-.014 1.416 7.98 4.796.016 1.076-7.97-4.74-.014 1.414 8.02 4.82.046.027 8.143-4.872v-1.266l-.01-.148v-3.76l3.414-2.037v10.02l-11.55 6.87-11.545-6.87v-9.853z"/></svg>