<svg version="1" xmlns="http://www.w3.org/2000/svg" width="146.3" height="40.375" viewBox="0 0 146.3 40.375"><path d="M71.874 18.66c0-.707.58-1.287 1.256-1.287h7.18c5.087 0 8.436 2.704 8.436 7.147v.064c0 4.86-4.057 7.373-8.854 7.373h-5.474v6.825c0 .708-.58 1.288-1.288 1.288-.676 0-1.256-.58-1.256-1.288v-20.12zm8.114 10.98c3.734 0 6.182-1.996 6.182-4.958v-.064c0-3.22-2.415-4.894-6.054-4.894h-5.698v9.917h5.57zM93.603 18.5c0-.708.58-1.288 1.255-1.288.71 0 1.288.58 1.288 1.288v20.283c0 .708-.58 1.288-1.288 1.288-.676 0-1.255-.58-1.255-1.286V18.5zm9.14.032c0-.676.58-1.256 1.257-1.256h.354c.58 0 .934.29 1.288.74l13.684 17.45V18.468c0-.676.547-1.256 1.256-1.256.676 0 1.223.58 1.223 1.256v20.348c0 .676-.482 1.19-1.158 1.19h-.13c-.547 0-.933-.32-1.32-.77l-13.973-17.87v17.45c0 .676-.547 1.256-1.255 1.256-.68 0-1.226-.58-1.226-1.256V18.532zm25.43-.032c0-.708.58-1.288 1.257-1.288.708 0 1.287.58 1.287 1.288v12.33l12.847-13.167c.29-.257.58-.45.998-.45.676 0 1.224.61 1.224 1.255 0 .354-.16.644-.42.9l-7.983 7.92 8.564 10.562c.225.29.354.547.354.934 0 .676-.577 1.288-1.285 1.288-.483 0-.806-.258-1.03-.58L135.58 29.03l-4.86 4.86v4.894c0 .708-.58 1.288-1.288 1.288-.677 0-1.256-.58-1.256-1.288V18.5zM60.498 28.32c0-.054-.01-.105-.016-.158-.006-.05-.01-.098-.02-.146-.002-.01 0-.017-.003-.025L55.285 6.65c-.36-2.347-2.593-6.65-8.6-6.65-.828 0-1.5.67-1.5 1.5s.672 1.5 1.5 1.5c4.857 0 5.576 3.73 5.64 4.143l4.767 19.7H55.02c-.74-5.926-5.8-10.53-11.926-10.53s-11.186 4.604-11.927 10.53H29.46c-.743-5.926-5.803-10.53-11.928-10.53S6.346 20.917 5.604 26.843H3.407L8.147 7.29l.027-.146C8.197 6.974 8.802 3 13.812 3c.83 0 1.5-.67 1.5-1.5s-.67-1.5-1.5-1.5c-6.006 0-8.238 4.303-8.6 6.65L.042 27.99c0 .01 0 .017-.002.025-.012.05-.015.098-.02.146-.008.055-.017.106-.017.16L0 28.344c0 .035.008.068.01.103.004.058.007.115.017.17.01.047.023.092.036.137.014.048.026.096.044.142.018.046.042.09.064.133.023.04.044.084.07.123.025.04.056.078.085.115.03.04.06.078.093.113.032.033.067.062.102.092.038.033.075.067.116.097.04.026.082.05.123.072.04.023.08.05.126.07.05.02.1.036.152.053.035.012.067.028.104.037.008.002.015 0 .023.003.107.023.217.04.33.04H5.6c.74 5.926 5.8 10.53 11.926 10.53s11.185-4.604 11.926-10.53h1.708c.742 5.926 5.802 10.53 11.927 10.53s11.187-4.604 11.928-10.53H59c.114 0 .224-.017.33-.04.01-.002.016 0 .024-.003.037-.01.07-.025.105-.037.05-.017.102-.032.15-.054.045-.02.086-.047.13-.07.04-.024.082-.047.12-.074.043-.03.08-.064.118-.098.033-.03.07-.06.1-.092.035-.035.064-.074.094-.113.03-.037.06-.074.086-.114.025-.04.045-.083.067-.125.023-.044.046-.088.064-.134.02-.045.03-.093.044-.14.013-.046.027-.09.036-.137.01-.056.014-.113.018-.17.002-.035.01-.068.01-.104.002-.01 0-.017 0-.025zM17.53 37.375c-4.474 0-8.18-3.26-8.895-7.53-.082-.49-.135-.99-.135-1.5s.053-1.012.135-1.5c.716-4.272 4.42-7.532 8.896-7.532s8.183 3.26 8.898 7.53c.082.49.135.99.135 1.5s-.053 1.012-.135 1.5c-.715 4.273-4.42 7.532-8.896 7.532zm25.564 0c-4.475 0-8.18-3.26-8.896-7.53-.082-.49-.135-.99-.135-1.5s.053-1.012.135-1.5c.716-4.272 4.42-7.532 8.896-7.532s8.18 3.26 8.896 7.53c.082.49.135.99.135 1.5s-.053 1.012-.135 1.5c-.716 4.273-4.42 7.532-8.896 7.532z" fill="#FFF"/></svg>